<?xml version="1.0" standalone="no"?><!DOCTYPE svg PUBLIC "-//W3C//DTD SVG 1.1//EN" "http://www.w3.org/Graphics/SVG/1.1/DTD/svg11.dtd"><svg t="1630743662760" class="icon" viewBox="0 0 1024 1024" version="1.1" xmlns="http://www.w3.org/2000/svg" p-id="3052" xmlns:xlink="http://www.w3.org/1999/xlink" width="200" height="200"><defs><style type="text/css">@font-face { font-family: element-icons; src: url("chrome-extension://dkbiiofameebehokbgjmdcholafphbnl/fonts/element-icons.woff") format("woff"), url("chrome-extension://dkbiiofameebehokbgjmdcholafphbnl/fonts/element-icons.ttf ") format("truetype"); }
</style></defs><path d="M461.824 459.264m-192.585143 0a192.585143 192.585143 0 1 0 385.170286 0 192.585143 192.585143 0 1 0-385.170286 0Z" fill="#2D8CF0" p-id="3053"></path><path d="M512 0a512 512 0 1 0 0.073143 1024.073143A512 512 0 0 0 512 0z m262.144 771.584a18.358857 18.358857 0 0 1-24.429714 1.389714l-0.146286 0.219429-1.024-1.024c-0.292571-0.219429-0.585143-0.292571-0.731429-0.585143a2.048 2.048 0 0 1-0.585142-0.804571L611.547429 635.245714a231.131429 231.131429 0 1 1-149.723429-407.186285 231.204571 231.204571 0 0 1 176.054857 380.854857l138.020572 137.947428-0.438858 0.365715a18.285714 18.285714 0 0 1-1.316571 24.356571z" fill="#2D8CF0" p-id="3054"></path></svg>